<?xml version="1.0" encoding="UTF-8"?><svg id="Layer_1" xmlns="http://www.w3.org/2000/svg" viewBox="0 0 176 57"><path d="M44.35,0C34.9,0,24.55,5.7,18.1,11.25l.45,.75C28.6,4.95,42.7,.3,46.6,7.2c2.1,3.6-1.5,10.95-6.3,16.8,1.2-2.55,.45-7.5-6.45-7.5C22.6,16.5,.25,31.5,.25,46.8c0,6.15,4.2,10.2,11.25,10.2,18.75,0,44.25-30.75,44.25-46.35C55.75,5.25,52.6,0,44.35,0m-8.7,29.1l-1.8,1.95c-6.3,6.15-12,9.45-15.9,9.45-2.1,.15-4.05-1.35-4.2-3.6,0-.6,0-1.2,.3-1.8,1.65-6,12.45-14.85,19.95-14.85,5.25-.15,4.8,4.8,1.65,8.85"/><path d="M85.9,16.35c-1.65-1.95-4.05-3-6.45-3h-10.95l-1.8,6.9h10.35l1.05,.15c.6,0,1.05,.3,1.5,.75,.45,.75,.6,1.8,.15,2.7l-.45,1.8h-6.6c-5.7,0-13.5,4.05-15.15,10.5-.9,2.85-.3,5.85,1.5,8.1,2.1,2.25,5.1,3.3,8.25,3.15h13.8l3.6-13.5,2.7-9.9c.6-2.7,.15-5.55-1.5-7.65m-10.8,24h-6.45c-.9,0-1.95-.3-2.55-1.05-.6-.75-.75-1.8-.45-2.85,.75-2.4,3.15-4.2,5.7-4.2h6l-2.25,8.1Z"/><path d="M160.9,26.4c-2.4-1.35-4.8-2.55-4.35-4.05,.45-1.35,1.65-2.25,3.15-2.25h10.05l1.8-6.9h-10.05c-2.85,0-5.7,.9-7.95,2.55-2.1,1.5-3.6,3.9-4.2,6.45-1.65,6,3.15,9,6.9,10.95,2.7,1.5,5.1,2.7,4.65,4.65-.3,1.35-.9,2.55-4.35,2.55h-10.2l-1.8,6.9h11.4c2.85,.15,5.7-.75,8.1-2.4,2.25-1.8,3.75-4.35,4.35-7.2,.9-2.55,.3-5.4-1.5-7.5-1.95-1.35-3.9-2.7-6-3.75"/><path d="M106.9,30.3c-1.65-1.65-3.6-3-5.7-3.9-2.4-1.35-4.8-2.55-4.35-4.05,.45-1.35,1.65-2.25,3.15-2.25h10.05l1.8-6.9h-10.05c-2.85,0-5.7,.9-7.95,2.55-2.1,1.5-3.75,3.9-4.2,6.45-1.65,6,3.15,9,6.9,10.95,2.7,1.5,5.1,2.7,4.65,4.65-.3,1.35-.9,2.55-4.35,2.55h-10.2l-1.8,6.9h11.4c2.85,.15,5.7-.75,8.1-2.4,2.25-1.8,3.75-4.35,4.35-7.05,.6-2.4,0-5.25-1.8-7.5"/><polygon points="117.4 13.2 108.4 47.4 115.9 47.4 124.9 13.2 117.4 13.2"/><path d="M143.5,20.1h4.05l1.8-6.9h-4.5c-10.5-.3-19.8,6.9-22.35,17.1-2.55,9.75,2.55,17.1,12,17.1h6.3l1.95-6.9h-6.3c-3.6,0-8.4-2.85-6.45-10.2,1.65-6,7.2-10.2,13.5-10.2"/><path d="M174.7,41.55c-1.35-1.35-3.45-1.35-4.8,0-.6,.6-1.05,1.5-1.05,2.4,0,1.95,1.5,3.45,3.45,3.45s3.45-1.5,3.45-3.45c0-.9-.3-1.8-1.05-2.4m-.3,4.5c-1.2,1.05-3,1.05-4.2,0-.6-.6-.9-1.35-.9-2.1,0-1.65,1.2-3,2.85-3.15s3,1.2,3.15,2.85c.15,.9-.3,1.8-.9,2.4"/><path d="M173.8,45.6v-.6c0-.15-.15-.45-.15-.6-.15-.15-.45-.3-.6-.3,.15,0,.3-.15,.6-.15,.3-.15,.45-.45,.3-.75,0-.45-.15-.75-.6-.9-.3-.15-.6-.15-1.05-.15h-1.35v3.75h.6v-1.5h.6c.3,0,.45,0,.75,.15s.45,.6,.3,.9v.45h.6q0-.15,0-.3m-.9-1.8c-.15,0-.45,.15-.6,.15h-.6v-1.35h.6c.3,0,.6,0,.75,.15s.3,.3,.3,.6c-.15,.15-.3,.45-.45,.45"/></svg>