<?xml version="1.0" encoding="UTF-8"?><svg id="Layer_1" xmlns="http://www.w3.org/2000/svg" viewBox="0 0 194 24"><path d="M16.69,.35h.45c7.83,.35,15.6,1.5,23.19,3.42,13.28,3.42,18.36,6.49,14.15,7.38s-20.47,.36-37.86,11.43c-1.23,.79-3,1.75-7.5,.36-2.19-.63-4.32-1.48-6.33-2.55-10.79-5.53,19.09-9.31,24.36-10.11,6-.78,12.14-1.32,6.69-4.3-1.32-.71-4.75-2.62-16.7-5.45,0,.09-.53,0-.45-.18Z"/><path d="M87.77,2.65c.35-1.06,.88-1.59,3.17-1.59h6c3.78,0,6.24,.71,7.5,2.11,.91,1.03,1.3,2.43,1.05,3.78-.35,3.85-2.37,6-6.67,7.5h-.18l3,7.92c.08,.19,0,.41-.19,.49-.05,.02-.1,.03-.15,.03h-3.58c-.99,.04-1.88-.57-2.21-1.5l-2.28-5.83h-3.72l-2.19,6.68c-.13,.29-.39,.48-.71,.52h-4.6c-.25,0-.44-.27-.35-.44l6.12-19.68Zm4.92,2.55l-1.85,6h3.51c2.73,0,5.1,0,5.46-3.51,.1-.57-.07-1.15-.45-1.59-1.08-.74-2.39-1.05-3.69-.87l-2.98-.03Z"/><path d="M136,23.11c-2.57,.15-5.06-.88-6.77-2.8-1.07-1.47-1.36-3.37-.79-5.1l1.14-3.95c2.21-7.74,5.71-10.5,13.5-10.5h.36c2.56-.15,5.06,.89,6.77,2.8,1.06,1.48,1.35,3.37,.78,5.1l-1.14,3.96c-2.19,7.73-4.5,10.5-13.5,10.5h-.34Zm5.7-17.76c-3.24,.09-5.17,1.84-6.31,5.72l-.98,3.6c-.13,.49-.19,.99-.17,1.5,.17,1.5,1.31,2.19,3.33,2.28,3.25-.09,5.19-1.84,6.33-5.72l.96-3.6c.14-.49,.2-.99,.18-1.5-.09-1.5-1.23-2.29-3.35-2.29h0Z"/><path d="M154.1,22.76c.32,0,.6-.22,.71-.52l2.73-8.7c.29,.03,.55,.19,.71,.44l3.85,7.5c.42,.82,1.28,1.34,2.21,1.32h3.94c.22,0,.39-.18,.38-.4,0-.04,0-.09-.02-.13l-4.83-9.41c-.11-.23-.07-.51,.09-.71l11.6-10.7c.11-.09,.12-.25,.03-.36-.05-.06-.13-.1-.21-.09h-4.65c-.79,.01-1.55,.33-2.12,.89l-9.13,8.56c-.24,.23-.56,.35-.88,.34l2.91-9.3c.07-.21-.04-.44-.25-.52-.04-.01-.08-.02-.11-.02h-4.5c-.34-.03-.64,.21-.71,.54l-6.42,20.82c-.09,.25,.09,.44,.35,.44h4.33Z"/><path d="M189.25,5.27h-4.65c-1.75,0-3.34,.27-3.6,2.29-.09,.87,.53,1.23,1.84,1.75l3.86,1.41c2.05,.61,3.33,2.63,3,4.74-.69,6-5.08,7.29-11.5,7.29h-7.2c-.31-.03-.54-.3-.53-.61,.26-2.16,2.13-3.76,4.3-3.69h4.74c2.55,0,3.96-.96,4.12-2.9,.09-.98-.43-1.68-1.84-2.29l-3.79-1.4c-1.87-.53-3.11-2.28-3-4.22,.62-5.62,4.67-6.77,11-6.77h7.11c.24,0,.44,.19,.44,.43,0,.03,0,.07,0,.1-.15,2.23-2.05,3.94-4.29,3.86Z"/><path d="M113.08,23.11c-2.56,.15-5.06-.89-6.77-2.8-1.06-1.48-1.35-3.37-.79-5.1l1.14-3.95c2.21-7.74,5.71-10.5,13.5-10.5h.35c2.56-.15,5.06,.89,6.77,2.8,1.06,1.48,1.35,3.37,.79,5.1l-1.14,3.96c-2.21,7.73-4.5,10.5-13.5,10.5h-.35Zm5.81-17.76c-3.25,.09-5.19,1.84-6.33,5.72l-.98,3.6c-.13,.49-.19,.99-.17,1.5,.17,1.5,1.32,2.19,3.33,2.28,3.25-.09,5.19-1.84,6.33-5.72l.96-3.6c.14-.49,.2-.99,.18-1.5-.18-1.5-1.32-2.29-3.33-2.29h0Z"/><path d="M76,1.06c3.25,0,5.62,.71,6.85,2.11,.75,.81,1.1,1.91,.96,3-.25,2.64-1.5,4.03-4.5,5.26l-.36,.18,.36,.18c1.33,.8,2.05,2.32,1.85,3.85-.77,7.11-6.66,7.11-12.89,7.11h-5.1c-1.14,0-2.37,.09-2.8-.34-.36-.48-.46-1.11-.27-1.68l5.62-18.09c.34-1.06,.87-1.59,3.17-1.59h7.11Zm-5.35,17.58c2.1,0,4.65,.17,4.83-2.64,.12-.61-.08-1.23-.52-1.67-.81-.61-1.81-.9-2.82-.79h-4.12l-1.57,5.01,4.21,.09Zm-1.41-8.88h4.13c2.64,0,4.4-.34,4.67-2.55,.12-.47-.02-.97-.36-1.32-.52-.61-1.75-.69-4.21-.69h-2.9l-1.32,4.56Z"/></svg>