<svg viewBox="0 0 175.84 48.2" xmlns="http://www.w3.org/2000/svg"><path d="m143.65 29.6 7.4-14.77 2.02 14.77h-9.41zm25.05 15.94-7.86-43.35c-.13-.73-.77-1.27-1.52-1.27h-10.52c-1.88 0-2.06.04-2.67 1.11l-.33.63-19.42 34-7.72-12.15 16.47-20.31c.75-.91 1.02-1.56 1.02-2.05 0-.91-.47-1.22-2.5-1.22h-8.67c-1.31 0-1.43.08-2.5 1.39l-15.29 18.77 3.16-17.44q.2-.98.21-1.26c.07-1.19-.47-1.46-2.49-1.46h-7c-2.3 0-2.45.06-2.86 2.3l-2.86 15.95c-.99-11.54-9.7-19.04-22.73-19.04-9.85 0-18.07 4.23-22.89 11.11.28.18.58.37.89.55.14.09.25.15.3.18 0 0 .02.01.03.02.2.13 1.25.72 1.78.99 1.15.58 2.54 1.21 3.82 1.71l.1.04c1.41.54 2.75 1.06 3.84 1.62l.15.08s.03.02.05.02c2.52-3.03 6.4-4.88 10.88-4.88 6.27 0 10.59 3.66 11.41 9.41 1.06-.02 2.27.04 3.54.1h.11c1.37.07 2.89.07 4.19 0 .59-.03 1.78-.14 2.02-.18h.03c.06 0 .18-.02.34-.04 1.91-.23 3.41-.56 4.46-.98.8-.32 2.05-.94 2.64-1.24.1-.05.19-.1.27-.13l.08-.04s.09-.04.14-.06c.33-.14.69-.17 1.05-.1.68.15 1.15.63 1.38 1.03.53.94.33 2.02-.46 2.57-.02.02-2.17 1.43-3.61 1.98-1.59.61-3.67 1.01-4.27 1.11-.41.07-1.55.23-2.71.4-.19.02-.32.04-.36.05-.63.1-1.34.21-2.24.33-1.05.15-2.36.34-4.14.62l-.53.09c-.92.15-1.65.28-2.27.39-1.53 5.89-6.6 9.75-13.19 9.75-7.5 0-12.22-4.96-11.8-12.33.05-.88.18-1.74.39-2.56-.56-.39-1.23-.83-2.1-1.41l-.45-.3c-1.51-.97-2.63-1.68-3.53-2.25-.77-.48-1.37-.86-1.9-1.21-.04-.02-.15-.1-.31-.19-1-.62-1.97-1.23-2.31-1.46-.51-.34-2.25-1.55-3.46-2.76-1.11-1.1-2.48-3.25-2.49-3.27-.5-.83-.24-1.9.62-2.54.37-.28 1-.52 1.66-.38.38.09.69.26.94.52.04.04.07.08.11.13l.05.06c.05.06.12.15.2.24.42.51 1.3 1.58 1.9 2.2.41.42.94.86 1.58 1.33l1.23-6.79.17-1.26c.15-1.14-.47-1.46-2.49-1.46h-7.23c-2.3 0-2.45.06-2.86 2.3l-2.59 14.59h-16.67l2.57-14.17q.2-.98.21-1.26c.07-1.19-.47-1.46-2.49-1.46h-7.18c-2.3 0-2.45.06-2.86 2.3l-7.53 41.35-.14 1.26c-.07 1.19.47 1.42 2.42 1.42h7.18c2.3 0 2.45-.02 2.86-2.26l3.08-16.96h16.67l-2.99 16.54c-.18.7-.2.98-.21 1.26-.07 1.19.68 1.42 2.7 1.42h6.99c2.3 0 2.45-.02 2.86-2.26l2.97-16.38c1.06 11.7 10.19 19.41 23.72 19.41 8.7 0 15.79-3.25 20.56-9.32 1.3-1.65 2.42-3.56 3.33-5.58l-2.06 11.45-.14 1.26c-.14 1.19.4 1.42 2.35 1.42h7c2.3 0 2.45-.02 2.86-2.26l3.36-18.49c.71 1.6 1.35 2.88 3.14 5.99l8.09 13.33c.85 1.36.95 1.42 2.28 1.42h12.28c1.95 0 2.1.04 2.74-1.14l.33-.63 3.5-6.63h16.29l.99 7.29c.09.64.63 1.11 1.28 1.11h10.12c.92 0 1.62-.83 1.45-1.74m-66.79-24.9c-.14.1-2.08 1.35-3.28 1.8-1.21.47-2.91.84-4 1.03-.58.1-3.03.44-3.05.44-.63.1-1.33.21-2.2.33-1.08.15-2.41.35-4.18.62l-.54.09c-3.72.63-4.5.77-7.43 1.87-1.44.53-2.25.94-2.81 1.22l-.14.07c-.2.11-.52.3-.93.54-.75.44-2 1.15-3.07 1.69-.46.23-.73.3-1.36.18-.63-.15-.85-.32-1.17-.71-.76-.93-1.61-2.08-2.12-2.79-.28-.39-.49-.68-.63-.87l-.1-.12c-.39-.48-.97-1.18-2.07-2.25-2.24-2.2-2.89-2.64-6.03-4.73l-.46-.31c-1.5-.97-2.64-1.69-3.57-2.27-.75-.47-1.35-.85-1.88-1.2-.02-.02-2.11-1.31-2.61-1.64-.92-.62-2.32-1.65-3.23-2.57-.91-.91-2.17-2.83-2.26-2.98-.1-.16.08-.39.23-.5.08-.06.27-.14.42-.11.06.01.1.04.13.07.04.04.14.17.27.33.44.53 1.35 1.64 2 2.31 1.3 1.33 3.24 2.51 3.98 2.95.12.07.22.13.26.16.31.2 1.45.83 1.93 1.08 1.21.62 2.65 1.26 3.97 1.77 1.41.54 2.75 1.06 3.79 1.59l.17.09c1.49.71 3.89 2.46 4.45 2.91.93.75 3.64 2.26 4.46 2.7.23.14.73.38 1.44.54.71.13 1.26.12 1.53.09.93-.06 4.02-.35 5.17-.65.7-.18 3.6-.8 5.25-.85h.19c1.16-.07 2.6 0 4.11.08 1.41.07 2.99.06 4.35 0 .54-.03 1.84-.14 2.2-.2.05 0 .16-.02.31-.04.85-.1 3.11-.39 4.84-1.08.86-.34 2.15-.99 2.76-1.29.19-.1.33-.17.38-.19s.09-.02.15-.01c.15.03.29.18.34.27.09.16.16.44.01.55m70.97 26.3c-1.23 0-2.23-1-2.23-2.23s1-2.23 2.23-2.23 2.23 1 2.23 2.23-1 2.23-2.23 2.23m0-4.81c-1.42 0-2.58 1.15-2.58 2.58s1.15 2.58 2.58 2.58 2.58-1.15 2.58-2.58-1.15-2.58-2.58-2.58m-.34 2.45h.21c.28 0 .42-.04.52-.16.09-.1.14-.24.14-.39 0-.18-.09-.34-.24-.4-.07-.03-.19-.05-.33-.05h-.19l-.12.99zm1.21 1.47c.03.06.05.09.05.11 0 .07-.04.09-.16.09h-.13q-.12 0-.18-.11l-.67-1.16h-.17l-.14 1.12c-.02.14-.02.15-.17.15h-.13c-.13 0-.16-.02-.16-.1 0-.02 0-.05 0-.07l.34-2.77c.01-.14.02-.15.17-.15h.45c.36 0 .56.05.72.19.19.16.3.41.3.69 0 .26-.1.51-.27.67-.13.12-.26.18-.5.24z"/></svg>