<svg style="margin-right: 3px" fill="none" height="24" viewBox="0 0 24 24" width="24" xmlns="http://www.w3.org/2000/svg"><path clip-rule="evenodd" d="m4.7732 6.51991c-.55911.31949-.7732.68467-.7732.98009s.21409.6606.7732.98009c.5109.29195 1.23386.49345 2.06019.51749.05509.00161.11063.00242.16661.00242.89561 0 1.68184-.2085 2.2268-.51991.55911-.31949.7732-.68467.7732-.98009s-.21409-.6606-.7732-.98009c-.54496-.31141-1.33119-.51991-2.2268-.51991s-1.68184.2085-2.2268.51991zm5.451 2.48009c.457-.38673.7758-.89456.7758-1.5 0-.80915-.5694-1.44397-1.27706-1.84834-.72178-.41245-1.68555-.65166-2.72294-.65166s-2.00116.23921-2.72294.65166c-.70765.40437-1.27706 1.03919-1.27706 1.84834v7c0 .8093.56937 1.4442 1.27708 1.8485.72181.4124 1.68557.6515 2.72292.6515h2 3 3 3 2.5c.2761 0 .5-.2239.5-.5v-7c0-.27614-.2239-.5-.5-.5zm-3.2242 1c-.11288 0-.22489-.00283-.33582-.00841-.90841-.04568-1.74384-.27556-2.3871-.64308-.09521-.0544-.18792-.11297-.27708-.17558v5.32707c0 .2957.21413.6608.77317.9802.2092.1196.45397.2239.72683.3071v-1.2873c0-.2761.22386-.5.5-.5s.5.2239.5.5v1.478c.16207.0144.32904.022.5.022h1.5v-2.5c0-.2761.22386-.5.5-.5s.5.2239.5.5v2.5h2v-1.5c0-.2761.2239-.5.5-.5s.5.2239.5.5v1.5h2v-2.5c0-.2761.2239-.5.5-.5s.5.2239.5.5v2.5h2v-1.5c0-.2761.2239-.5.5-.5s.5.2239.5.5v1.5h1.5v-6z" fill="#0a0a0a" fill-rule="evenodd"></path></svg>