<?xml version="1.0" encoding="UTF-8"?><svg id="Layer_1" xmlns="http://www.w3.org/2000/svg" viewBox="0 0 104 56"><defs><style>.cls-1,.cls-2{fill:#0b0204;}.cls-2{fill-rule:evenodd;}</style></defs><path class="cls-1" d="M0,55.4H2.3v-4.5c0-.8,0-1.8,.4-2.4s1.1-.8,1.6-.8c1.9,0,1.9,2.3,1.9,3v4.7h2.3v-5.1c0-.7,0-2.3-.9-3.4-.8-1-2-1.3-2.8-1.3-1.4,0-2.2,.8-2.6,1.1v-.8H0v9.5"/><path class="cls-2" d="M11.3,49.9c.4-1.8,1.8-2.2,2.7-2.2,1.1,0,2.3,.7,2.6,2.2h-5.3m7.4,1.8c.1-.3,.1-.7,.1-1.1,0-2.4-1.9-5-4.9-5s-5,2.5-5,5.1c0,2.8,2.2,5,5,5,2.2,0,4-1.6,4.6-3.3h-2.4c-.4,.8-1.2,1.2-2.2,1.2-1.6,0-2.5-1.3-2.6-1.9,0,0,7.4,0,7.4,0Z"/><polyline class="cls-1" points="21.8 55.4 23.2 55.4 25 49.3 25 49.3 26.8 55.4 28.2 55.4 31.6 45.9 29.2 45.9 27.5 51.7 27.4 51.7 25.9 45.9 24.1 45.9 22.5 51.7 22.5 51.7 20.8 45.9 18.4 45.9 21.8 55.4"/><path class="cls-2" d="M38.1,50.5c0-1.4,1.1-2.8,2.8-2.8,1.4,0,2.8,1.1,2.8,3,0,1.8-1.2,3-2.7,3-1.3-.1-2.9-1.1-2.9-3.2m-2.1,4.9h2.1v-1.1c.6,.6,1.4,1.5,3.2,1.5,3.5,0,4.7-3.2,4.7-5.1,0-2.5-1.9-5-4.8-5-1.1,0-2.2,.4-3,1.2v-4h-2.2v12.5Z"/><path class="cls-2" d="M54.4,50.6c0,1.8-1.2,3-2.8,3s-2.8-1.3-2.8-2.9c0-1.4,1-3,2.8-3,1.4,0,2.8,1,2.8,2.9m2.2-4.7h-2.1v1.2h0c-.1-.1-1.2-1.5-3.1-1.5-2.6,0-4.7,2.1-4.7,5,0,3.2,2.2,5.1,4.6,5.1,1.2,0,2.6-.6,3.3-1.5v1.2h2.1v-9.5h-.1Z"/><rect class="cls-1" x="57.8" y="42.8" width="2.3" height="12.6"/><path class="cls-2" d="M68.6,50.6c0,1.8-1.2,3-2.8,3s-2.8-1.3-2.8-2.9c0-1.4,1-3,2.8-3,1.4,0,2.8,1,2.8,2.9m2.1-4.7h-2.1v1.2h0c-.1-.1-1.2-1.5-3.1-1.5-2.6,0-4.7,2.1-4.7,5,0,3.2,2.2,5.1,4.6,5.1,1.2,0,2.6-.6,3.3-1.5v1.2h2.1v-9.5h-.1Z"/><path class="cls-1" d="M71.9,55.4h2.3v-4.5c0-.8,0-1.8,.4-2.4s1.1-.8,1.6-.8c1.9,0,1.9,2.3,1.9,3v4.7h2.3v-5.1c0-.7,0-2.3-.9-3.4-.8-1-2-1.3-2.8-1.3-1.4,0-2.2,.8-2.6,1.1v-.8h-2.1v9.5"/><path class="cls-1" d="M88.4,52.3c-.6,1-1.3,1.3-2.1,1.3-1.7,0-2.8-1.3-2.8-3,0-1.9,1.4-3,2.7-3,1.4,0,1.9,.9,2.2,1.4h2.6c-1-2.9-3.6-3.5-4.8-3.5-2.6,0-5,2.1-5,5,0,3.1,2.6,5.1,5,5.1,2.2,0,4-1.3,4.7-3.4h-2.5"/><path class="cls-2" d="M93.6,49.9c.4-1.8,1.8-2.2,2.7-2.2,1.1,0,2.3,.7,2.6,2.2h-5.3m7.4,1.8c.1-.3,.1-.7,.1-1.1,0-2.4-1.9-5-4.9-5s-5,2.5-5,5.1c0,2.8,2.2,5,5,5,2.2,0,4-1.6,4.6-3.3h-2.4c-.4,.8-1.2,1.2-2.2,1.2-1.6,0-2.5-1.3-2.6-1.9,0,0,7.4,0,7.4,0Z"/><path class="cls-2" d="M52.4,13.1l3.5-6.1,11.9-.8,.4-.7-11-.8L59.8,.2h20.4c6.3,0,10.9,2.2,9.1,8.9-.5,2-3.1,7-10.6,9.2,1.6,.2,5.6,1.9,4.9,6.5-1.2,8.1-11.7,11.9-17.5,11.9h-24.1l-1.2-4.7,12.6-.9,.4-.7-13.7-.8-1.4-5.6,19.5-1.1,.4-.7-35-2.2,1.7-2.9,37.7-2.5,.4-.7-11-.8m15.8,1.2h3.5c2.3,0,4.7-1.1,5.6-3.2,.8-2-.3-3.7-1.7-3.7h-3.4l-4,6.9Zm-4,7l-4.2,7.3h4c1.9,0,5.2-.9,6.2-3.6,.9-2.5-.8-3.7-2-3.7h-4Zm-30.5,11.2l-2.4,4.2H14l1.7-2.9,18-1.3ZM34.9,.3h13.9l1.1,3.9-16.7-1,1.7-2.9Zm15.8,7l1.5,5.8-23.8-1.6,1.7-2.9,20.6-1.3Zm-12.1,16.7l-3,5.2-16.8-.9,1.7-2.9,18.1-1.4Z"/><path class="cls-2" d="M103.8,54.3c0,.6-.5,1.1-1,1.1-.6,0-1-.5-1-1.1s.5-1.1,1-1.1c.5,0,1,.5,1,1.1m-2.4,0c0,.7,.6,1.3,1.3,1.3s1.3-.5,1.3-1.3c0-.7-.6-1.3-1.3-1.3s-1.3,.5-1.3,1.3Zm1-.6h.3c.3,0,.3,.1,.3,.2,0,.2-.1,.2-.4,.2h-.3v-.4h.1Zm0,.7h.3l.4,.6h.2l-.4-.6c.2,0,.4-.1,.4-.4s-.2-.4-.5-.4h-.6v1.4h.2v-.6h0Z"/></svg>