<svg viewBox="0 0 89.5 178.91" xmlns="http://www.w3.org/2000/svg"><path d="m81.13 178.91h-20.04v-40.01c-.02-11.81-8.39-20.72-19.48-20.72h-.03c-11.08.02-19.44 8.97-19.44 20.82v39.91h-20.05v-39.91c0-22.88 17.33-40.83 39.46-40.86h.06c22.13 0 39.49 17.89 39.52 40.75z"/><path d="m89.5 13.72-13.72-13.72-12.94 12.94c-6.21-3.79-13.5-5.97-21.3-5.97-22.56.04-40.89 18.42-40.86 40.99.04 22.53 18.39 40.86 40.92 40.86h.06c22.56-.03 40.89-18.42 40.86-40.99-.01-7.75-2.19-15-5.96-21.18l12.93-12.94zm-47.86 56.67h-.04c-12.38 0-22.47-10.08-22.49-22.46-.02-12.4 10.06-22.51 22.49-22.53 12.38 0 22.47 10.08 22.49 22.46.02 12.4-10.06 22.51-22.46 22.53z"/></svg>