<?xml version="1.0" encoding="UTF-8"?><svg id="Layer_1" xmlns="http://www.w3.org/2000/svg" viewBox="0 0 132 66"><path d="M71.19,.42c-.48,.12-.84,1.68-1.68,2.52-.6,.6-1.32,.6-1.8,1.32-.12,.24-.12,.72-.24,1.2-.36,.96-1.56,.96-1.56,1.92,0,1.08,.96,1.32,1.92,2.04,.72,.6,.72,1.08,1.56,1.32,.72,.24,1.8-.6,2.64-.24,.72,.24,1.56,.36,1.68,1.2,.12,.72,0,1.92-.96,1.68-.36,0-1.68-.48-3.36-.36-2.04,.24-4.32,.84-4.56,3.12-.12,1.32,1.44,2.76,3,2.4,1.08-.24,.6-1.44,1.08-2.04,.72-.72,4.92,2.64,8.88,2.64,1.68,0,2.88-.36,4.08-1.68,.12-.12,.24-.36,.48-.36,.12,0,.48,.12,.6,.24,3.12,2.52,5.52,7.68,17.16,7.68,1.68,0,3.48,.84,5.04,2.16,1.32,1.2,2.16,3.24,2.88,5.16,1.2,3,3.24,5.88,6.36,9.12,.12,.12,2.76,2.16,3,2.4,0,0,.24,.48,.12,.72-.12,1.92-.36,7.56,3.84,7.8,1.08,0,.72-.72,.72-1.2,0-.96-.12-1.92,.36-3,.72-1.32-1.44-2.04-1.44-4.92,0-2.16-1.8-1.8-2.76-3.48-.6-.96-1.08-1.44-.96-2.64,.24-6.72-1.44-11.16-2.28-12.24-.6-.84-1.2-1.2-.6-1.56,3.48-2.28,4.32-4.44,4.32-4.44,1.8-4.32,3.48-8.28,5.76-10.08,.48-.36,1.68-1.2,2.4-1.56,2.16-.96,3.24-1.68,3.84-2.28,.96-.96,1.8-3,.84-4.2-1.2-1.44-3.24-.36-4.08,.24-6.36,3.84-7.32,10.56-9.6,14.4-1.8,3.12-4.68,5.28-7.2,5.52-1.92,.12-3.96-.24-6.12-1.2-5.04-2.16-7.8-5.04-8.4-5.52-1.32-1.08-11.88-11.4-20.4-11.76,0,0-1.08-2.16-1.32-2.16-.6-.12-1.2,1.32-1.68,1.44-.48,.24-1.2-1.44-1.56-1.32h0Z"/><path d="M33.63,61.98c-.84,0-1.44-.72-1.44-1.44v-26.52h-8.76v29.28c0,1.44,1.2,2.64,2.64,2.64h15.24c1.44,0,2.64-1.2,2.64-2.64v-29.4h-8.76v26.52c0,.84-.72,1.56-1.56,1.56h0Z"/><path d="M62.91,33.9h-13.2c-1.56,0-2.88,1.32-2.88,2.88v29.04h8.76v-26.64c0-.84,.72-1.44,1.44-1.44,.84,0,1.44,.6,1.44,1.44v26.64h8.76v-26.64c0-.84,.72-1.44,1.44-1.44,.84,0,1.44,.6,1.44,1.44v26.64h8.76v-29.04c0-1.56-1.32-2.88-2.88-2.88h-13.08Z"/><path d="M17.67,57.78H8.79v8.04H.03v-31.92H17.67c1.56,0,2.76,1.32,2.76,2.88v18.12c0,1.56-1.2,2.88-2.76,2.88h0Zm-5.88-18.6c0-.84-.72-1.56-1.44-1.56h-1.44v16.08h1.32c.72,0,1.44-.6,1.44-1.44l.12-13.08h0Z"/><path d="M112.95,61.98c0,2.16-1.68,3.96-3.84,3.96s-3.96-1.8-3.96-3.96,1.8-3.96,3.84-3.96c2.28,.12,3.96,1.8,3.96,3.96h0Zm-3.84-3.36c-1.8,0-3.24,1.56-3.24,3.36s1.44,3.36,3.24,3.36,3.24-1.56,3.24-3.36-1.44-3.36-3.24-3.36h0Z"/><path d="M110.91,64.26h-1.08l-1.32-1.8v1.8h-.84v-4.56h.84c1.2,0,1.92,.48,1.92,1.32,0,.6-.36,1.08-.96,1.32h-.12l1.56,1.92h0Zm-2.16-2.52c.6,0,.96-.24,.96-.6s-.36-.6-.96-.6h-.12l.12,1.2h0Z"/><path d="M93.75,65.82v-8.04h-3v8.04h-8.76v-29.04c0-1.56,1.32-2.88,2.88-2.88h14.76c1.56,0,2.88,1.32,2.88,2.88v29.04h-8.76Zm0-12v-14.64c0-.84-.72-1.44-1.44-1.44-.84,0-1.44,.6-1.44,1.44v14.64h2.88Z"/></svg>