<?xml version="1.0" encoding="UTF-8"?><svg id="Layer_1" xmlns="http://www.w3.org/2000/svg" viewBox="0 0 106 72"><defs><style>.cls-1{fill:#000104;}</style></defs><path class="cls-1" d="M67.12,27.41l-1.2,.9c-3.16,2.23-7.75,3.77-13.72,3.77h-.42c-6,0-10.56-1.54-13.72-3.77l-1.2-.9,1.2-.9c3.17-2.23,7.72-3.72,13.72-3.72h.38c6,0,10.56,1.54,13.72,3.77l1.2,.9m30.79-18.46s-2.71-2.06-11.29-5.22c-4.26-1.63-8.69-2.78-13.2-3.43V16.6c0,2.46-.85,4.84-2.4,6.76-6.08-2.39-12.54-3.66-19.07-3.77-6.53,.11-12.99,1.38-19.07,3.77-1.55-1.91-2.39-4.3-2.4-6.76V.35c-4.51,.64-8.94,1.77-13.2,3.38-8.58,3.16-11.29,5.22-11.29,5.22,.35,7.38,6.82,13.93,16.99,18.46-10.18,4.52-16.64,11.08-16.99,18.46,0,0,2.71,2.06,11.29,5.22,4.26,1.61,8.69,2.75,13.2,3.38v-16.25c0-2.46,.85-4.84,2.4-6.76,6.08,2.39,12.54,3.66,19.07,3.77,6.53-.11,12.99-1.38,19.07-3.77,1.55,1.91,2.39,4.3,2.4,6.76v16.25c4.51-.64,8.94-1.77,13.2-3.38,8.58-3.16,11.29-5.22,11.29-5.22-.35-7.38-6.8-13.93-16.99-18.46,10.19-4.52,16.64-11.08,16.99-18.46"/><path class="cls-1" d="M41.96,64.79c1.05-.12,2.01,.63,2.13,1.68,.01,.13,.02,.25,0,.38v.72c.1,.91-.47,1.76-1.36,2.02l1.36,2.06h-2.04l-1.33-2.06h-1.48l-.78-1.44h3.19c.27,.03,.52-.16,.55-.43,0-.04,0-.08,0-.11v-.61c.04-.27-.15-.52-.42-.55-.04,0-.09,0-.13,0h-3.44v5.18h-1.9v-6.84h5.64Z"/><path class="cls-1" d="M62.78,64.79c1.05-.12,2.01,.63,2.13,1.68,.01,.13,.02,.25,0,.38v.72c.1,.91-.47,1.76-1.36,2.02l1.36,2.06h-2.04l-1.33-2.06h-1.48l-.78-1.44h3.19c.27,.03,.52-.16,.55-.43,0-.04,0-.08,0-.11v-.61c.04-.27-.15-.52-.42-.55-.04,0-.09,0-.13,0h-3.49v5.18h-1.85v-6.84h5.64Z"/><path class="cls-1" d="M101.44,64.79c1.05-.12,2.01,.63,2.13,1.68,.01,.13,.02,.25,0,.38v.72c.1,.92-.49,1.78-1.39,2.02l1.36,2.06h-2.04l-1.3-2.06h-1.48l-.78-1.44h3.19c.27,.03,.52-.16,.55-.43,0-.04,0-.08,0-.11v-.61c.04-.27-.15-.52-.42-.55-.04,0-.09,0-.13,0h-3.44v5.18h-1.9v-6.84h5.64Z"/><path class="cls-1" d="M7.9,69.59c.1,1-.64,1.89-1.64,1.99-.12,.01-.24,.01-.35,0H2.14c-1,.08-1.88-.67-1.96-1.68,0-.1,0-.21,0-.31v-4.8h1.9v4.52c-.04,.3,.17,.58,.47,.62,.05,0,.09,0,.14,0h2.72c.3,.04,.58-.17,.62-.47,0-.05,0-.1,0-.15v-4.52h1.9l-.04,4.8Z"/><path class="cls-1" d="M10.72,64.79c.38-.06,.77,.08,1.01,.38l2.57,2.9,.97,1.2v-4.49h1.84v6.84h-1.44c-.38,.06-.77-.09-1.01-.4l-2.57-2.92-1.1-1.3,.07,1.61v3h-1.85v-6.84h1.51Z"/><path class="cls-1" d="M24.55,69.3v-2.22c.04-.3-.17-.58-.47-.62-.05,0-.09,0-.14,0h-3.54v5.17h-1.9v-6.84h6c1-.1,1.89,.64,1.99,1.64,.01,.11,.01,.23,0,.34v2.82c.1,1-.64,1.89-1.64,1.99-.12,.01-.24,.01-.35,0h-2.94l-.9-1.72h3.28c.3,.04,.57-.16,.61-.46,0-.05,0-.1,0-.16"/><path class="cls-1" d="M35.13,66.48h-5.51c-.08,0-.14,.06-.14,.14h0v3.13c0,.08,.06,.14,.14,.14h5.51v1.73h-6.4c-.58,.05-1.09-.38-1.15-.96,0-.08,0-.16,0-.24v-4.54c-.09-.57,.3-1.1,.87-1.19,.09-.01,.18-.02,.27,0h6.4v1.79Zm-.1,2.4h-4.6l-.71-1.31h4.6l.71,1.31Z"/><path class="cls-1" d="M46.75,71.63l3.6-6.88h1.93c.53,0,.78,.11,.97,.48l3.34,6.4h-2.23l-.56-1.1h-2.4l-.8-1.44h2.47l-1.4-2.72-2.7,5.27h-2.21Z"/><path class="cls-1" d="M68.05,64.79c.39-.05,.77,.18,.91,.55l1.6,3,.6,1.38,.61-1.38,1.62-3.04c.14-.37,.52-.6,.91-.55h1.92v6.88h-1.9v-2.27l.12-2.4-.86,1.8-1.6,2.87h-1.64l-1.6-2.86-.89-1.8,.14,2.4v2.26h-1.81v-6.84h1.86Z"/><path class="cls-1" d="M79.39,64.79h4.18c1-.1,1.88,.63,1.98,1.63,.01,.12,.01,.24,0,.35v2.82c.1,1-.64,1.89-1.64,1.99-.11,.01-.23,.01-.34,0h-4.18c-1,.08-1.89-.66-1.97-1.67,0-.11,0-.22,0-.33v-2.86c-.07-1,.69-1.88,1.69-1.95,.09,0,.18,0,.27,0m3.6,5.16c.3,.04,.58-.17,.62-.47,0-.05,0-.09,0-.14v-2.26c.04-.31-.19-.59-.5-.62-.04,0-.08,0-.13,0h-3.12c-.31-.04-.59,.19-.62,.5,0,.04,0,.08,0,.13v2.22c-.04,.3,.18,.58,.48,.61,.05,0,.09,0,.14,0l3.12,.04Z"/><path class="cls-1" d="M94.52,69.59c.12,1-.59,1.91-1.59,2.03-.11,.01-.23,.02-.34,0h-3.77c-1,.13-1.92-.57-2.05-1.56-.02-.16-.02-.32,0-.48v-4.8h1.9v4.52c-.04,.3,.17,.58,.47,.62,.05,0,.09,0,.14,0h2.72c.3,.04,.58-.17,.62-.47,0-.05,0-.1,0-.15v-4.52h1.9v4.8Z"/><path class="cls-1" d="M105.7,70.94c0,.31-.25,.56-.56,.56s-.56-.25-.56-.56,.25-.56,.56-.56,.56,.25,.56,.56h0m.12,0c0-.38-.31-.68-.68-.68s-.68,.31-.68,.68,.31,.68,.68,.68h0c.38,0,.68-.31,.68-.68"/><path class="cls-1" d="M105.28,71.27h.12l-.2-.28c.09,0,.16-.09,.16-.18,0,0,0,0,0-.01,0-.11,0-.18-.2-.18h-.24v.65h.11v-.28l.26,.28Zm-.26-.56h.1c.1,0,.13,0,.13,.11s0,.1-.13,.1h-.1v-.2Z"/></svg>